<svg width="943" height="144" viewBox="0 0 943 144" fill="none" xmlns="http://www.w3.org/2000/svg">
<path d="M295.516 61.637C295.516 69.1103 297.177 74.8043 300.498 78.7189C303.82 82.6335 309.276 85.4211 316.868 87.0819L322.74 88.3274C329.502 89.8695 334.009 91.4709 336.263 93.1317C338.517 94.6738 339.644 97.3428 339.644 101.139C339.644 104.935 338.339 107.96 335.73 110.214C333.238 112.467 329.739 113.594 325.231 113.594C315.86 113.594 310.7 106.951 309.751 93.6655L293.737 96.1566C294.686 104.816 297.711 111.222 302.811 115.374C307.912 119.526 315.386 121.601 325.231 121.601C335.196 121.601 342.788 119.466 348.007 115.196C353.227 110.925 355.836 104.994 355.836 97.4021C355.836 89.6916 354.176 83.9383 350.854 80.1424C347.533 76.2278 342.017 73.3808 334.306 71.6014L327.544 69.8221C321.139 68.28 316.868 66.6785 314.733 65.0178C312.598 63.3571 311.53 60.688 311.53 57.0107C311.53 53.2147 312.716 50.1898 315.089 47.9359C317.461 45.6821 320.783 44.5552 325.053 44.5552C329.324 44.5552 332.705 46.2752 335.196 49.7153C337.687 53.1554 339.051 58.019 339.288 64.3061L355.302 61.9929C354.235 53.3333 351.21 46.9276 346.228 42.7758C341.364 38.624 334.306 36.548 325.053 36.548C305.362 36.548 295.516 44.911 295.516 61.637ZM422.521 90.6406V88.5053C422.521 65.7295 413.031 54.3416 394.051 54.3416C374.596 54.3416 364.869 65.5516 364.869 87.9715C364.869 99.2408 367.123 107.663 371.631 113.238C376.257 118.814 383.553 121.601 393.517 121.601C403.6 121.601 410.658 119.822 414.691 116.263C418.725 112.705 421.038 107.841 421.631 101.673L405.261 101.317C405.261 108.316 402.058 111.815 395.652 111.815C391.856 111.815 389.069 110.332 387.289 107.367C385.51 104.282 384.62 98.707 384.62 90.6406H422.521ZM403.303 80.8541H384.976C385.451 74.3298 386.34 69.9407 387.645 67.6868C389.069 65.3144 391.263 64.1281 394.229 64.1281C397.313 64.1281 399.508 65.4923 400.812 68.2206C402.236 70.8304 403.066 75.0415 403.303 80.8541ZM462.037 79.0747C457.885 77.8885 454.742 76.6429 452.606 75.3381C450.471 73.9146 449.403 72.0759 449.403 69.8221C449.403 66.0261 452.369 64.1281 458.3 64.1281C464.825 64.1281 468.443 68.3986 469.154 76.9395L485.702 74.8043C484.635 68.0427 481.966 62.9419 477.695 59.5018C473.425 56.0617 467.256 54.3416 459.19 54.3416C451.124 54.3416 444.659 56.0617 439.795 59.5018C435.05 62.8232 432.678 67.5089 432.678 73.5587C432.678 79.4899 434.101 84.0569 436.948 87.2598C439.914 90.344 444.362 92.7165 450.293 94.3772L455.987 96.1566C465.003 98.6477 469.51 101.91 469.51 105.943C469.51 109.858 466.367 111.815 460.08 111.815C456.64 111.815 453.852 110.629 451.717 108.256C449.581 105.884 448.336 102.622 447.98 98.4698L431.61 100.783C432.678 107.663 435.347 112.883 439.617 116.441C444.006 119.881 450.412 121.601 458.834 121.601C467.256 121.601 473.899 119.822 478.763 116.263C483.745 112.705 486.236 107.96 486.236 102.028C486.236 95.9786 484.635 91.4116 481.432 88.3274C478.229 85.2432 473.543 82.8114 467.375 81.032L462.037 79.0747ZM524.537 79.0747C520.385 77.8885 517.242 76.6429 515.106 75.3381C512.971 73.9146 511.903 72.0759 511.903 69.8221C511.903 66.0261 514.869 64.1281 520.8 64.1281C527.325 64.1281 530.943 68.3986 531.654 76.9395L548.202 74.8043C547.135 68.0427 544.466 62.9419 540.195 59.5018C535.925 56.0617 529.756 54.3416 521.69 54.3416C513.624 54.3416 507.159 56.0617 502.295 59.5018C497.55 62.8232 495.178 67.5089 495.178 73.5587C495.178 79.4899 496.601 84.0569 499.448 87.2598C502.414 90.344 506.862 92.7165 512.793 94.3772L518.487 96.1566C527.503 98.6477 532.01 101.91 532.01 105.943C532.01 109.858 528.867 111.815 522.58 111.815C519.14 111.815 516.352 110.629 514.217 108.256C512.081 105.884 510.836 102.622 510.48 98.4698L494.11 100.783C495.178 107.663 497.847 112.883 502.117 116.441C506.506 119.881 512.912 121.601 521.334 121.601C529.756 121.601 536.399 119.822 541.263 116.263C546.245 112.705 548.736 107.96 548.736 102.028C548.736 95.9786 547.135 91.4116 543.932 88.3274C540.729 85.2432 536.043 82.8114 529.875 81.032L524.537 79.0747ZM571.734 50.0712C575.056 50.0712 577.844 49.0036 580.097 46.8683C582.351 44.6145 583.478 41.8268 583.478 38.5053C583.478 35.0652 582.351 32.2183 580.097 29.9644C577.844 27.5919 575.056 26.4057 571.734 26.4057C568.413 26.4057 565.625 27.5919 563.371 29.9644C561.118 32.2183 559.991 35.0059 559.991 38.3274C559.991 41.5303 561.118 44.3179 563.371 46.6904C565.744 48.9442 568.532 50.0712 571.734 50.0712ZM581.699 120V55.9431H561.77V120H581.699ZM657.186 87.9715C657.186 65.5516 647.044 54.3416 626.759 54.3416C606.593 54.3416 596.51 65.5516 596.51 87.9715C596.51 110.391 606.593 121.601 626.759 121.601C647.044 121.601 657.186 110.391 657.186 87.9715ZM616.261 87.9715C616.261 79.6679 616.973 73.618 618.396 69.8221C619.82 66.0261 622.607 64.1281 626.759 64.1281C631.03 64.1281 633.817 66.0261 635.122 69.8221C636.546 73.4994 637.257 79.5492 637.257 87.9715C637.257 96.3938 636.546 102.503 635.122 106.299C633.817 109.976 631.03 111.815 626.759 111.815C622.607 111.815 619.82 109.917 618.396 106.121C616.973 102.325 616.261 96.2752 616.261 87.9715ZM687.372 61.637L680.788 55.9431H671.714V120H691.642V68.9324C694.964 66.6785 698.226 65.5516 701.429 65.5516C704.75 65.5516 706.945 66.5006 708.013 68.3986C709.08 70.2966 709.614 73.3215 709.614 77.4733V120H729.365V74.9822C729.365 68.9324 727.645 64.0095 724.205 60.2135C720.883 56.2989 715.723 54.3416 708.724 54.3416C701.725 54.3416 694.608 56.7734 687.372 61.637Z" fill="#9365B8"/>
<path d="M792.443 110.391H766.82V38.1495H746.714V120H792.443V110.391ZM810.602 50.0712C813.923 50.0712 816.711 49.0036 818.965 46.8683C821.218 44.6145 822.345 41.8268 822.345 38.5053C822.345 35.0652 821.218 32.2183 818.965 29.9644C816.711 27.5919 813.923 26.4057 810.602 26.4057C807.28 26.4057 804.493 27.5919 802.239 29.9644C799.985 32.2183 798.858 35.0059 798.858 38.3274C798.858 41.5303 799.985 44.3179 802.239 46.6904C804.611 48.9442 807.399 50.0712 810.602 50.0712ZM820.566 120V55.9431H800.637V120H820.566ZM872.744 108.79C869.897 110.095 867.524 110.747 865.626 110.747C862.542 110.747 861 108.671 861 104.52V66.0854H873.1V55.9431H861V40.4626L841.071 47.2242V55.9431H831.463V66.0854H841.071V100.605C841.071 108.553 842.495 113.95 845.342 116.797C848.544 120 853.111 121.601 859.043 121.601C865.092 121.601 870.549 120.297 875.413 117.687L872.744 108.79ZM936.778 90.6406V88.5053C936.778 65.7295 927.288 54.3416 908.309 54.3416C888.854 54.3416 879.127 65.5516 879.127 87.9715C879.127 99.2408 881.381 107.663 885.889 113.238C890.515 118.814 897.81 121.601 907.775 121.601C917.858 121.601 924.916 119.822 928.949 116.263C932.982 112.705 935.296 107.841 935.889 101.673L919.519 101.317C919.519 108.316 916.316 111.815 909.91 111.815C906.114 111.815 903.326 110.332 901.547 107.367C899.768 104.282 898.878 98.707 898.878 90.6406H936.778ZM917.561 80.8541H899.234C899.708 74.3298 900.598 69.9407 901.903 67.6868C903.326 65.3144 905.521 64.1281 908.487 64.1281C911.571 64.1281 913.765 65.4923 915.07 68.2206C916.494 70.8304 917.324 75.0415 917.561 80.8541Z" fill="#A998B6"/>
<path d="M80 50C80 22.3858 102.386 0 130 0H144V64H80V50Z" fill="#A998B6"/>
<path d="M160 0H224V14C224 41.6142 201.614 64 174 64H160V0Z" fill="#9365B8"/>
<path d="M80 80H144V94C144 121.614 121.614 144 94 144H80V80Z" fill="#9365B8"/>
<path d="M0 130C0 102.386 22.3858 80 50 80H64V144H0V130Z" fill="#A998B6"/>
</svg>
