<svg width="945" height="148" viewBox="0 0 945 148" fill="none" xmlns="http://www.w3.org/2000/svg">
<path d="M279.577 38.1495H259.47V99.5374C259.47 108.671 257.512 113.238 253.598 113.238C249.683 113.238 247.726 107.189 247.726 95.089H230.11C230.11 106.714 231.949 114.009 235.626 116.975C239.304 120.059 244.582 121.601 251.463 121.601C258.343 121.601 263.622 121.008 267.299 119.822C271.095 118.636 273.823 116.916 275.484 114.662C278.212 110.747 279.577 105.706 279.577 99.5374V38.1495ZM352.73 55.9431H332.98V106.655C330.014 109.739 326.93 111.281 323.727 111.281C320.524 111.281 318.329 110.214 317.143 108.078C315.957 105.943 315.364 102.8 315.364 98.6477V55.9431H295.435V101.317C295.435 114.84 302.434 121.601 316.431 121.601C324.023 121.601 330.192 118.932 334.937 113.594L340.097 120H352.73V55.9431ZM425.417 61.4591C421.621 56.7141 416.105 54.3416 408.869 54.3416C401.633 54.3416 394.397 56.7734 387.161 61.637L380.577 55.9431H371.503V120H391.431V68.0427C394.397 66.382 397.541 65.5516 400.862 65.5516C406.675 65.5516 409.581 68.5765 409.581 74.6263V120H429.332V74.9822C429.332 73.4401 429.095 71.2456 428.62 68.3986C431.823 66.5006 435.085 65.5516 438.407 65.5516C444.338 65.5516 447.303 68.5765 447.303 74.6263V120H467.232V74.9822C467.232 68.9324 465.453 64.0095 461.894 60.2135C458.454 56.2989 453.175 54.3416 446.058 54.3416C439.059 54.3416 432.179 56.7141 425.417 61.4591ZM499.357 60.2135L493.841 55.9431H484.589V147.046L504.517 144.377V120.356C508.551 121.186 512.525 121.601 516.439 121.601C534.589 121.601 543.663 110.391 543.663 87.9715C543.663 65.5516 534.529 54.3416 516.261 54.3416C510.686 54.3416 505.051 56.2989 499.357 60.2135ZM504.517 111.459V66.6192C506.89 65.9075 508.788 65.5516 510.211 65.5516C519.345 65.5516 523.912 73.2622 523.912 88.6833C523.912 104.104 519.583 111.815 510.923 111.815C508.076 111.815 505.941 111.696 504.517 111.459ZM583.115 79.0747C578.963 77.8885 575.82 76.6429 573.684 75.3381C571.549 73.9146 570.482 72.0759 570.482 69.8221C570.482 66.0261 573.447 64.1281 579.378 64.1281C585.903 64.1281 589.521 68.3986 590.233 76.9395L606.781 74.8043C605.713 68.0427 603.044 62.9419 598.773 59.5018C594.503 56.0617 588.335 54.3416 580.268 54.3416C572.202 54.3416 565.737 56.0617 560.873 59.5018C556.128 62.8232 553.756 67.5089 553.756 73.5587C553.756 79.4899 555.179 84.0569 558.026 87.2598C560.992 90.344 565.44 92.7165 571.371 94.3772L577.065 96.1566C586.081 98.6477 590.588 101.91 590.588 105.943C590.588 109.858 587.445 111.815 581.158 111.815C577.718 111.815 574.93 110.629 572.795 108.256C570.66 105.884 569.414 102.622 569.058 98.4698L552.688 100.783C553.756 107.663 556.425 112.883 560.695 116.441C565.084 119.881 571.49 121.601 579.912 121.601C588.335 121.601 594.977 119.822 599.841 116.263C604.823 112.705 607.314 107.96 607.314 102.028C607.314 95.9786 605.713 91.4116 602.51 88.3274C599.307 85.2432 594.622 82.8114 588.453 81.032L583.115 79.0747ZM653.978 108.79C651.131 110.095 648.759 110.747 646.861 110.747C643.776 110.747 642.234 108.671 642.234 104.52V66.0854H654.334V55.9431H642.234V40.4626L622.305 47.2242V55.9431H612.697V66.0854H622.305V100.605C622.305 108.553 623.729 113.95 626.576 116.797C629.779 120 634.346 121.601 640.277 121.601C646.327 121.601 651.784 120.297 656.647 117.687L653.978 108.79ZM699.152 112.527L704.134 120H717.301V76.5836C717.301 61.7556 708.226 54.3416 690.077 54.3416C680.943 54.3416 674.418 56.1803 670.504 59.8576C666.589 63.4164 664.276 68.9917 663.564 76.5836L679.934 78.5409C680.409 68.9324 683.612 64.1281 689.543 64.1281C694.881 64.1281 697.55 67.8648 697.55 75.3381V81.7438L686.518 83.879C677.147 85.5397 670.504 87.8529 666.589 90.8185C662.675 93.6655 660.717 97.8766 660.717 103.452C660.717 109.027 662.378 113.476 665.7 116.797C669.14 120 673.647 121.601 679.223 121.601C687.526 121.601 694.169 118.577 699.152 112.527ZM678.333 102.918C678.333 96.8683 682.07 93.013 689.543 91.3523L697.55 89.7509V105.587C693.991 109.383 690.611 111.281 687.408 111.281C681.358 111.281 678.333 108.493 678.333 102.918ZM743.859 55.9431H734.784V120H754.713V80.3203C754.713 76.6429 755.958 73.9146 758.449 72.1352C761.059 70.3559 765.626 69.4662 772.15 69.4662V55.4093C763.491 55.4093 756.729 59.3238 751.866 67.153L743.859 55.9431ZM814.33 108.79C811.483 110.095 809.11 110.747 807.212 110.747C804.128 110.747 802.586 108.671 802.586 104.52V66.0854H814.685V55.9431H802.586V40.4626L782.657 47.2242V55.9431H773.048V66.0854H782.657V100.605C782.657 108.553 784.081 113.95 786.927 116.797C790.13 120 794.697 121.601 800.629 121.601C806.678 121.601 812.135 120.297 816.999 117.687L814.33 108.79Z" fill="#9365B8"/>
<path d="M80 50C80 22.3858 102.386 0 130 0H144V64H80V50Z" fill="#9365B8"/>
<path d="M80 80H144V94C144 121.614 121.614 144 94 144H80V80Z" fill="#9365B8"/>
<path d="M0 130C0 102.386 22.3858 80 50 80H64V144H0V130Z" fill="#9365B8"/>
</svg>
