<svg width="1026" height="144" viewBox="0 0 1026 144" fill="none" xmlns="http://www.w3.org/2000/svg">
<path d="M372.032 27.1495H309.754V36.758H331.107V109H351.036V36.758H372.032V27.1495ZM389.093 44.9431H380.018V109H399.947V69.3203C399.947 65.6429 401.193 62.9146 403.684 61.1352C406.294 59.3559 410.861 58.4662 417.385 58.4662V44.4093C408.725 44.4093 401.964 48.3238 397.1 56.153L389.093 44.9431ZM460.987 101.527L465.97 109H479.137V65.5836C479.137 50.7556 470.062 43.3416 451.913 43.3416C442.779 43.3416 436.254 45.1803 432.34 48.8576C428.425 52.4164 426.112 57.9917 425.4 65.5836L441.77 67.5409C442.245 57.9324 445.448 53.1281 451.379 53.1281C456.717 53.1281 459.386 56.8648 459.386 64.3381V70.7438L448.354 72.879C438.983 74.5397 432.34 76.8529 428.425 79.8185C424.511 82.6655 422.553 86.8766 422.553 92.452C422.553 98.0273 424.214 102.476 427.536 105.797C430.976 109 435.483 110.601 441.059 110.601C449.362 110.601 456.005 107.577 460.987 101.527ZM440.169 91.9181C440.169 85.8683 443.906 82.013 451.379 80.3523L459.386 78.7509V94.5872C455.827 98.3832 452.447 100.281 449.244 100.281C443.194 100.281 440.169 97.4935 440.169 91.9181ZM551.246 44.9431H540.036L523.666 99.2135L507.296 44.9431H487.545L508.186 109H530.428L551.246 44.9431ZM614.028 79.6406V77.5053C614.028 54.7295 604.538 43.3416 585.559 43.3416C566.104 43.3416 556.377 54.5516 556.377 76.9715C556.377 88.2408 558.631 96.6631 563.139 102.238C567.765 107.814 575.06 110.601 585.025 110.601C595.108 110.601 602.166 108.822 606.199 105.263C610.232 101.705 612.546 96.841 613.139 90.6726L596.769 90.3167C596.769 97.3155 593.566 100.815 587.16 100.815C583.364 100.815 580.576 99.3321 578.797 96.3665C577.018 93.2823 576.128 87.707 576.128 79.6406H614.028ZM594.811 69.8541H576.484C576.958 63.3298 577.848 58.9407 579.153 56.6868C580.576 54.3144 582.771 53.1281 585.737 53.1281C588.821 53.1281 591.015 54.4923 592.32 57.2206C593.744 59.8304 594.574 64.0415 594.811 69.8541ZM637.531 44.9431H628.456V109H648.385V69.3203C648.385 65.6429 649.63 62.9146 652.121 61.1352C654.731 59.3559 659.298 58.4662 665.822 58.4662V44.4093C657.163 44.4093 650.401 48.3238 645.538 56.153L637.531 44.9431ZM699.639 68.0747C695.487 66.8885 692.343 65.6429 690.208 64.3381C688.073 62.9146 687.005 61.0759 687.005 58.8221C687.005 55.0261 689.971 53.1281 695.902 53.1281C702.426 53.1281 706.044 57.3986 706.756 65.9395L723.304 63.8043C722.236 57.0427 719.567 51.9419 715.297 48.5018C711.026 45.0617 704.858 43.3416 696.792 43.3416C688.725 43.3416 682.26 45.0617 677.397 48.5018C672.652 51.8232 670.279 56.5089 670.279 62.5587C670.279 68.4899 671.703 73.0569 674.55 76.2598C677.515 79.344 681.964 81.7165 687.895 83.3772L693.589 85.1566C702.604 87.6477 707.112 90.9098 707.112 94.9431C707.112 98.8577 703.968 100.815 697.681 100.815C694.241 100.815 691.453 99.6287 689.318 97.2562C687.183 94.8837 685.937 91.6216 685.582 87.4698L669.211 89.7829C670.279 96.6631 672.948 101.883 677.219 105.441C681.608 108.881 688.013 110.601 696.436 110.601C704.858 110.601 711.501 108.822 716.364 105.263C721.347 101.705 723.838 96.9597 723.838 91.0285C723.838 84.9786 722.236 80.4116 719.034 77.3274C715.831 74.2432 711.145 71.8114 704.977 70.032L699.639 68.0747ZM770.502 97.79C767.655 99.0949 765.282 99.7473 763.384 99.7473C760.3 99.7473 758.758 97.6714 758.758 93.5196V55.0854H770.857V44.9431H758.758V29.4626L738.829 36.2242V44.9431H729.22V55.0854H738.829V89.605C738.829 97.5528 740.252 102.95 743.099 105.797C746.302 109 750.869 110.601 756.8 110.601C762.85 110.601 768.307 109.297 773.171 106.687L770.502 97.79ZM837.561 76.9715C837.561 54.5516 827.419 43.3416 807.134 43.3416C786.968 43.3416 776.885 54.5516 776.885 76.9715C776.885 99.3915 786.968 110.601 807.134 110.601C827.419 110.601 837.561 99.3915 837.561 76.9715ZM796.636 76.9715C796.636 68.6679 797.348 62.618 798.771 58.8221C800.195 55.0261 802.982 53.1281 807.134 53.1281C811.405 53.1281 814.192 55.0261 815.497 58.8221C816.921 62.4994 817.632 68.5492 817.632 76.9715C817.632 85.3938 816.921 91.503 815.497 95.2989C814.192 98.9763 811.405 100.815 807.134 100.815C802.982 100.815 800.195 98.917 798.771 95.121C797.348 91.325 796.636 85.2752 796.636 76.9715ZM867.747 50.637L861.163 44.9431H852.089V109H872.017V57.9324C875.339 55.6785 878.601 54.5516 881.804 54.5516C885.125 54.5516 887.32 55.5006 888.388 57.3986C889.455 59.2966 889.989 62.3215 889.989 66.4733V109H909.74V63.9822C909.74 57.9324 908.02 53.0095 904.58 49.2135C901.258 45.2989 896.098 43.3416 889.099 43.3416C882.1 43.3416 874.983 45.7734 867.747 50.637Z" fill="#666666"/>
<path d="M80 80H144V94C144 121.614 121.614 144 94 144H80V80Z" fill="#00B15E"/>
<path d="M0 50C0 22.3858 22.3858 0 50 0H64V64H0V50Z" fill="#2A96F2"/>
<path d="M160 0H224V14C224 41.6142 201.614 64 174 64H160V0Z" fill="#EF2985"/>
<rect x="80" width="64" height="64" fill="#9365B8"/>
</svg>
