<svg width="817" height="207" viewBox="0 0 817 207" fill="none" xmlns="http://www.w3.org/2000/svg">
<path d="M279.577 16.1495H259.47V77.5374C259.47 86.6714 257.512 91.2384 253.598 91.2384C249.683 91.2384 247.726 85.1886 247.726 73.089H230.11C230.11 84.7141 231.949 92.0095 235.626 94.9751C239.304 98.0593 244.582 99.6014 251.463 99.6014C258.343 99.6014 263.622 99.0083 267.299 97.8221C271.095 96.6358 273.823 94.9158 275.484 92.6619C278.212 88.7473 279.577 83.7058 279.577 77.5374V16.1495ZM352.73 33.9431H332.98V84.6548C330.014 87.739 326.93 89.2811 323.727 89.2811C320.524 89.2811 318.329 88.2135 317.143 86.0783C315.957 83.9431 315.364 80.7995 315.364 76.6477V33.9431H295.435V79.3167C295.435 92.8399 302.434 99.6014 316.431 99.6014C324.023 99.6014 330.192 96.9324 334.937 91.5943L340.097 98H352.73V33.9431ZM425.417 39.4591C421.621 34.7141 416.105 32.3416 408.869 32.3416C401.633 32.3416 394.397 34.7734 387.161 39.637L380.577 33.9431H371.503V98H391.431V46.0427C394.397 44.382 397.541 43.5516 400.862 43.5516C406.675 43.5516 409.581 46.5765 409.581 52.6263V98H429.332V52.9822C429.332 51.4401 429.095 49.2456 428.62 46.3986C431.823 44.5006 435.085 43.5516 438.407 43.5516C444.338 43.5516 447.303 46.5765 447.303 52.6263V98H467.232V52.9822C467.232 46.9324 465.453 42.0095 461.894 38.2135C458.454 34.2989 453.175 32.3416 446.058 32.3416C439.059 32.3416 432.179 34.7141 425.417 39.4591ZM499.357 38.2135L493.841 33.9431H484.589V125.046L504.517 122.377V98.3559C508.551 99.1862 512.525 99.6014 516.439 99.6014C534.589 99.6014 543.663 88.3915 543.663 65.9715C543.663 43.5516 534.529 32.3416 516.261 32.3416C510.686 32.3416 505.051 34.2989 499.357 38.2135ZM504.517 89.4591V44.6192C506.89 43.9075 508.788 43.5516 510.211 43.5516C519.345 43.5516 523.912 51.2622 523.912 66.6833C523.912 82.1044 519.583 89.8149 510.923 89.8149C508.076 89.8149 505.941 89.6963 504.517 89.4591ZM583.115 57.0747C578.963 55.8885 575.82 54.6429 573.684 53.3381C571.549 51.9146 570.482 50.0759 570.482 47.8221C570.482 44.0261 573.447 42.1281 579.378 42.1281C585.903 42.1281 589.521 46.3986 590.233 54.9395L606.781 52.8043C605.713 46.0427 603.044 40.9419 598.773 37.5018C594.503 34.0617 588.335 32.3416 580.268 32.3416C572.202 32.3416 565.737 34.0617 560.873 37.5018C556.128 40.8232 553.756 45.5089 553.756 51.5587C553.756 57.4899 555.179 62.0569 558.026 65.2598C560.992 68.344 565.44 70.7165 571.371 72.3772L577.065 74.1566C586.081 76.6477 590.588 79.9098 590.588 83.9431C590.588 87.8577 587.445 89.8149 581.158 89.8149C577.718 89.8149 574.93 88.6287 572.795 86.2562C570.66 83.8837 569.414 80.6216 569.058 76.4698L552.688 78.7829C553.756 85.6631 556.425 90.8826 560.695 94.4413C565.084 97.8814 571.49 99.6014 579.912 99.6014C588.335 99.6014 594.977 97.8221 599.841 94.2633C604.823 90.7046 607.314 85.9597 607.314 80.0285C607.314 73.9786 605.713 69.4116 602.51 66.3274C599.307 63.2432 594.622 60.8114 588.453 59.032L583.115 57.0747ZM653.978 86.79C651.131 88.0949 648.759 88.7473 646.861 88.7473C643.776 88.7473 642.234 86.6714 642.234 82.5196V44.0854H654.334V33.9431H642.234V18.4626L622.305 25.2242V33.9431H612.697V44.0854H622.305V78.605C622.305 86.5528 623.729 91.9502 626.576 94.7972C629.779 98 634.346 99.6014 640.277 99.6014C646.327 99.6014 651.784 98.2966 656.647 95.6868L653.978 86.79ZM699.152 90.5267L704.134 98H717.301V54.5836C717.301 39.7556 708.226 32.3416 690.077 32.3416C680.943 32.3416 674.418 34.1803 670.504 37.8576C666.589 41.4164 664.276 46.9917 663.564 54.5836L679.934 56.5409C680.409 46.9324 683.612 42.1281 689.543 42.1281C694.881 42.1281 697.55 45.8648 697.55 53.3381V59.7438L686.518 61.879C677.147 63.5397 670.504 65.8529 666.589 68.8185C662.675 71.6655 660.717 75.8766 660.717 81.452C660.717 87.0273 662.378 91.4757 665.7 94.7972C669.14 98 673.647 99.6014 679.223 99.6014C687.526 99.6014 694.169 96.5765 699.152 90.5267ZM678.333 80.9181C678.333 74.8683 682.07 71.013 689.543 69.3523L697.55 67.7509V83.5872C693.991 87.3832 690.611 89.2811 687.408 89.2811C681.358 89.2811 678.333 86.4935 678.333 80.9181ZM743.859 33.9431H734.784V98H754.713V58.3203C754.713 54.6429 755.958 51.9146 758.449 50.1352C761.059 48.3559 765.626 47.4662 772.15 47.4662V33.4093C763.491 33.4093 756.729 37.3238 751.866 45.153L743.859 33.9431ZM814.33 86.79C811.483 88.0949 809.11 88.7473 807.212 88.7473C804.128 88.7473 802.586 86.6714 802.586 82.5196V44.0854H814.685V33.9431H802.586V18.4626L782.657 25.2242V33.9431H773.048V44.0854H782.657V78.605C782.657 86.5528 784.081 91.9502 786.927 94.7972C790.13 98 794.697 99.6014 800.629 99.6014C806.678 99.6014 812.135 98.2966 816.999 95.6868L814.33 86.79Z" fill="#9365B8"/>
<path d="M245.591 155.327V143.851L235.626 145.096V187H240.253L242.833 184.687C245.442 186.763 248.378 187.801 251.641 187.801C260.656 187.801 265.164 182.196 265.164 170.986C265.164 159.776 260.656 154.171 251.641 154.171C249.624 154.171 247.607 154.556 245.591 155.327ZM245.591 181.484V159.509C246.777 159.212 247.815 159.064 248.705 159.064C251.077 159.064 252.767 160.043 253.776 162C254.784 163.957 255.288 166.953 255.288 170.986C255.288 178.459 253.064 182.196 248.616 182.196C247.667 182.196 246.658 181.958 245.591 181.484ZM298.68 154.972H292.986L286.224 175.879L277.683 154.972H267.808L281.954 188.068L276.171 199.722L283.466 200.523L298.68 154.972ZM343.84 146.075H312.701V150.879H323.378V187H333.342V150.879H343.84V146.075ZM352.371 154.972H347.833V187H357.798V167.16C357.798 165.321 358.421 163.957 359.666 163.068C360.971 162.178 363.254 161.733 366.517 161.733V154.705C362.187 154.705 358.806 156.662 356.374 160.577L352.371 154.972ZM388.318 183.263L390.809 187H397.393V165.292C397.393 157.878 392.855 154.171 383.781 154.171C379.214 154.171 375.951 155.09 373.994 156.929C372.037 158.708 370.88 161.496 370.524 165.292L378.709 166.27C378.947 161.466 380.548 159.064 383.514 159.064C386.183 159.064 387.517 160.932 387.517 164.669V167.872L382.001 168.94C377.316 169.77 373.994 170.926 372.037 172.409C370.08 173.833 369.101 175.938 369.101 178.726C369.101 181.514 369.931 183.738 371.592 185.399C373.312 187 375.566 187.801 378.354 187.801C382.505 187.801 385.827 186.288 388.318 183.263ZM377.909 178.459C377.909 175.434 379.777 173.507 383.514 172.676L387.517 171.875V179.794C385.738 181.692 384.048 182.641 382.446 182.641C379.421 182.641 377.909 181.247 377.909 178.459ZM433.447 154.972H427.842L419.657 182.107L411.472 154.972H401.597L411.917 187H423.038L433.447 154.972ZM464.838 172.32V171.253C464.838 159.865 460.093 154.171 450.604 154.171C440.876 154.171 436.013 159.776 436.013 170.986C436.013 176.62 437.14 180.832 439.394 183.619C441.707 186.407 445.354 187.801 450.337 187.801C455.378 187.801 458.907 186.911 460.924 185.132C462.94 183.352 464.097 180.921 464.394 177.836L456.209 177.658C456.209 181.158 454.607 182.907 451.404 182.907C449.506 182.907 448.112 182.166 447.223 180.683C446.333 179.141 445.888 176.353 445.888 172.32H464.838ZM455.23 167.427H446.066C446.303 164.165 446.748 161.97 447.401 160.843C448.112 159.657 449.21 159.064 450.693 159.064C452.235 159.064 453.332 159.746 453.984 161.11C454.696 162.415 455.111 164.521 455.23 167.427ZM476.589 154.972H472.052V187H482.017V167.16C482.017 165.321 482.639 163.957 483.885 163.068C485.19 162.178 487.473 161.733 490.735 161.733V154.705C486.406 154.705 483.025 156.662 480.593 160.577L476.589 154.972ZM507.643 166.537C505.568 165.944 503.996 165.321 502.928 164.669C501.861 163.957 501.327 163.038 501.327 161.911C501.327 160.013 502.81 159.064 505.775 159.064C509.037 159.064 510.846 161.199 511.202 165.47L519.476 164.402C518.942 161.021 517.608 158.471 515.473 156.751C513.337 155.031 510.253 154.171 506.22 154.171C502.187 154.171 498.954 155.031 496.522 156.751C494.15 158.412 492.964 160.754 492.964 163.779C492.964 166.745 493.676 169.028 495.099 170.63C496.582 172.172 498.806 173.358 501.772 174.189L504.619 175.078C509.126 176.324 511.38 177.955 511.38 179.972C511.38 181.929 509.808 182.907 506.665 182.907C504.945 182.907 503.551 182.314 502.483 181.128C501.416 179.942 500.793 178.311 500.615 176.235L492.43 177.391C492.964 180.832 494.298 183.441 496.434 185.221C498.628 186.941 501.831 187.801 506.042 187.801C510.253 187.801 513.575 186.911 516.006 185.132C518.498 183.352 519.743 180.98 519.743 178.014C519.743 174.989 518.942 172.706 517.341 171.164C515.74 169.622 513.397 168.406 510.313 167.516L507.643 166.537ZM543.075 181.395C541.651 182.047 540.465 182.374 539.516 182.374C537.974 182.374 537.203 181.336 537.203 179.26V160.043H543.253V154.972H537.203V147.231L527.239 150.612V154.972H522.434V160.043H527.239V177.302C527.239 181.276 527.95 183.975 529.374 185.399C530.975 187 533.259 187.801 536.224 187.801C539.249 187.801 541.978 187.148 544.409 185.843L543.075 181.395ZM576.605 170.986C576.605 159.776 571.534 154.171 561.391 154.171C551.308 154.171 546.267 159.776 546.267 170.986C546.267 182.196 551.308 187.801 561.391 187.801C571.534 187.801 576.605 182.196 576.605 170.986ZM556.142 170.986C556.142 166.834 556.498 163.809 557.21 161.911C557.921 160.013 559.315 159.064 561.391 159.064C563.526 159.064 564.92 160.013 565.573 161.911C566.284 163.75 566.64 166.775 566.64 170.986C566.64 175.197 566.284 178.251 565.573 180.149C564.92 181.988 563.526 182.907 561.391 182.907C559.315 182.907 557.921 181.958 557.21 180.06C556.498 178.163 556.142 175.138 556.142 170.986ZM591.698 157.819L588.406 154.972H583.869V187H593.833V161.466C595.494 160.339 597.125 159.776 598.726 159.776C600.387 159.776 601.484 160.25 602.018 161.199C602.552 162.148 602.819 163.661 602.819 165.737V187H612.694V164.491C612.694 161.466 611.834 159.005 610.114 157.107C608.453 155.149 605.873 154.171 602.374 154.171C598.874 154.171 595.316 155.387 591.698 157.819Z" fill="#666666"/>
<path d="M80 74C80 46.3858 102.386 24 130 24H144V88H80V74Z" fill="#9365B8"/>
<path d="M80 104H144V118C144 145.614 121.614 168 94 168H80V104Z" fill="#9365B8"/>
<path d="M0 154C0 126.386 22.3858 104 50 104H64V168H0V154Z" fill="#9365B8"/>
</svg>
