<svg width="945" height="221" viewBox="0 0 945 221" fill="none" xmlns="http://www.w3.org/2000/svg">
<path d="M279.577 31.1495H259.47V92.5374C259.47 101.671 257.512 106.238 253.598 106.238C249.683 106.238 247.726 100.189 247.726 88.089H230.11C230.11 99.7141 231.949 107.009 235.626 109.975C239.304 113.059 244.582 114.601 251.463 114.601C258.343 114.601 263.622 114.008 267.299 112.822C271.095 111.636 273.823 109.916 275.484 107.662C278.212 103.747 279.577 98.7058 279.577 92.5374V31.1495ZM352.73 48.9431H332.98V99.6548C330.014 102.739 326.93 104.281 323.727 104.281C320.524 104.281 318.329 103.214 317.143 101.078C315.957 98.9431 315.364 95.7995 315.364 91.6477V48.9431H295.435V94.3167C295.435 107.84 302.434 114.601 316.431 114.601C324.023 114.601 330.192 111.932 334.937 106.594L340.097 113H352.73V48.9431ZM425.417 54.4591C421.621 49.7141 416.105 47.3416 408.869 47.3416C401.633 47.3416 394.397 49.7734 387.161 54.637L380.577 48.9431H371.503V113H391.431V61.0427C394.397 59.382 397.541 58.5516 400.862 58.5516C406.675 58.5516 409.581 61.5765 409.581 67.6263V113H429.332V67.9822C429.332 66.4401 429.095 64.2456 428.62 61.3986C431.823 59.5006 435.085 58.5516 438.407 58.5516C444.338 58.5516 447.303 61.5765 447.303 67.6263V113H467.232V67.9822C467.232 61.9324 465.453 57.0095 461.894 53.2135C458.454 49.2989 453.175 47.3416 446.058 47.3416C439.059 47.3416 432.179 49.7141 425.417 54.4591ZM499.357 53.2135L493.841 48.9431H484.589V140.046L504.517 137.377V113.356C508.551 114.186 512.525 114.601 516.439 114.601C534.589 114.601 543.663 103.391 543.663 80.9715C543.663 58.5516 534.529 47.3416 516.261 47.3416C510.686 47.3416 505.051 49.2989 499.357 53.2135ZM504.517 104.459V59.6192C506.89 58.9075 508.788 58.5516 510.211 58.5516C519.345 58.5516 523.912 66.2622 523.912 81.6833C523.912 97.1044 519.583 104.815 510.923 104.815C508.076 104.815 505.941 104.696 504.517 104.459ZM583.115 72.0747C578.963 70.8885 575.82 69.6429 573.684 68.3381C571.549 66.9146 570.482 65.0759 570.482 62.8221C570.482 59.0261 573.447 57.1281 579.378 57.1281C585.903 57.1281 589.521 61.3986 590.233 69.9395L606.781 67.8043C605.713 61.0427 603.044 55.9419 598.773 52.5018C594.503 49.0617 588.335 47.3416 580.268 47.3416C572.202 47.3416 565.737 49.0617 560.873 52.5018C556.128 55.8232 553.756 60.5089 553.756 66.5587C553.756 72.4899 555.179 77.0569 558.026 80.2598C560.992 83.344 565.44 85.7165 571.371 87.3772L577.065 89.1566C586.081 91.6477 590.588 94.9098 590.588 98.9431C590.588 102.858 587.445 104.815 581.158 104.815C577.718 104.815 574.93 103.629 572.795 101.256C570.66 98.8837 569.414 95.6216 569.058 91.4698L552.688 93.7829C553.756 100.663 556.425 105.883 560.695 109.441C565.084 112.881 571.49 114.601 579.912 114.601C588.335 114.601 594.977 112.822 599.841 109.263C604.823 105.705 607.314 100.96 607.314 95.0285C607.314 88.9786 605.713 84.4116 602.51 81.3274C599.307 78.2432 594.622 75.8114 588.453 74.032L583.115 72.0747ZM653.978 101.79C651.131 103.095 648.759 103.747 646.861 103.747C643.776 103.747 642.234 101.671 642.234 97.5196V59.0854H654.334V48.9431H642.234V33.4626L622.305 40.2242V48.9431H612.697V59.0854H622.305V93.605C622.305 101.553 623.729 106.95 626.576 109.797C629.779 113 634.346 114.601 640.277 114.601C646.327 114.601 651.784 113.297 656.647 110.687L653.978 101.79ZM699.152 105.527L704.134 113H717.301V69.5836C717.301 54.7556 708.226 47.3416 690.077 47.3416C680.943 47.3416 674.418 49.1803 670.504 52.8576C666.589 56.4164 664.276 61.9917 663.564 69.5836L679.934 71.5409C680.409 61.9324 683.612 57.1281 689.543 57.1281C694.881 57.1281 697.55 60.8648 697.55 68.3381V74.7438L686.518 76.879C677.147 78.5397 670.504 80.8529 666.589 83.8185C662.675 86.6655 660.717 90.8766 660.717 96.452C660.717 102.027 662.378 106.476 665.7 109.797C669.14 113 673.647 114.601 679.223 114.601C687.526 114.601 694.169 111.577 699.152 105.527ZM678.333 95.9181C678.333 89.8683 682.07 86.013 689.543 84.3523L697.55 82.7509V98.5872C693.991 102.383 690.611 104.281 687.408 104.281C681.358 104.281 678.333 101.493 678.333 95.9181ZM743.859 48.9431H734.784V113H754.713V73.3203C754.713 69.6429 755.958 66.9146 758.449 65.1352C761.059 63.3559 765.626 62.4662 772.15 62.4662V48.4093C763.491 48.4093 756.729 52.3238 751.866 60.153L743.859 48.9431ZM814.33 101.79C811.483 103.095 809.11 103.747 807.212 103.747C804.128 103.747 802.586 101.671 802.586 97.5196V59.0854H814.685V48.9431H802.586V33.4626L782.657 40.2242V48.9431H773.048V59.0854H782.657V93.605C782.657 101.553 784.081 106.95 786.927 109.797C790.13 113 794.697 114.601 800.629 114.601C806.678 114.601 812.135 113.297 816.999 110.687L814.33 101.79Z" fill="#9365B8"/>
<path d="M245.591 169.327V157.851L235.626 159.096V201H240.253L242.833 198.687C245.442 200.763 248.378 201.801 251.641 201.801C260.656 201.801 265.164 196.196 265.164 184.986C265.164 173.776 260.656 168.171 251.641 168.171C249.624 168.171 247.607 168.556 245.591 169.327ZM245.591 195.484V173.509C246.777 173.212 247.815 173.064 248.705 173.064C251.077 173.064 252.767 174.043 253.776 176C254.784 177.957 255.288 180.953 255.288 184.986C255.288 192.459 253.064 196.196 248.616 196.196C247.667 196.196 246.658 195.958 245.591 195.484ZM298.68 168.972H292.986L286.224 189.879L277.683 168.972H267.808L281.954 202.068L276.171 213.722L283.466 214.523L298.68 168.972ZM343.84 160.075H312.701V164.879H323.378V201H333.342V164.879H343.84V160.075ZM352.371 168.972H347.833V201H357.798V181.16C357.798 179.321 358.421 177.957 359.666 177.068C360.971 176.178 363.254 175.733 366.517 175.733V168.705C362.187 168.705 358.806 170.662 356.374 174.577L352.371 168.972ZM388.318 197.263L390.809 201H397.393V179.292C397.393 171.878 392.855 168.171 383.781 168.171C379.214 168.171 375.951 169.09 373.994 170.929C372.037 172.708 370.88 175.496 370.524 179.292L378.709 180.27C378.947 175.466 380.548 173.064 383.514 173.064C386.183 173.064 387.517 174.932 387.517 178.669V181.872L382.001 182.94C377.316 183.77 373.994 184.926 372.037 186.409C370.08 187.833 369.101 189.938 369.101 192.726C369.101 195.514 369.931 197.738 371.592 199.399C373.312 201 375.566 201.801 378.354 201.801C382.505 201.801 385.827 200.288 388.318 197.263ZM377.909 192.459C377.909 189.434 379.777 187.507 383.514 186.676L387.517 185.875V193.794C385.738 195.692 384.048 196.641 382.446 196.641C379.421 196.641 377.909 195.247 377.909 192.459ZM433.447 168.972H427.842L419.657 196.107L411.472 168.972H401.597L411.917 201H423.038L433.447 168.972ZM464.838 186.32V185.253C464.838 173.865 460.093 168.171 450.604 168.171C440.876 168.171 436.013 173.776 436.013 184.986C436.013 190.62 437.14 194.832 439.394 197.619C441.707 200.407 445.354 201.801 450.337 201.801C455.378 201.801 458.907 200.911 460.924 199.132C462.94 197.352 464.097 194.921 464.394 191.836L456.209 191.658C456.209 195.158 454.607 196.907 451.404 196.907C449.506 196.907 448.112 196.166 447.223 194.683C446.333 193.141 445.888 190.353 445.888 186.32H464.838ZM455.23 181.427H446.066C446.303 178.165 446.748 175.97 447.401 174.843C448.112 173.657 449.21 173.064 450.693 173.064C452.235 173.064 453.332 173.746 453.984 175.11C454.696 176.415 455.111 178.521 455.23 181.427ZM476.589 168.972H472.052V201H482.017V181.16C482.017 179.321 482.639 177.957 483.885 177.068C485.19 176.178 487.473 175.733 490.735 175.733V168.705C486.406 168.705 483.025 170.662 480.593 174.577L476.589 168.972ZM507.643 180.537C505.568 179.944 503.996 179.321 502.928 178.669C501.861 177.957 501.327 177.038 501.327 175.911C501.327 174.013 502.81 173.064 505.775 173.064C509.037 173.064 510.846 175.199 511.202 179.47L519.476 178.402C518.942 175.021 517.608 172.471 515.473 170.751C513.337 169.031 510.253 168.171 506.22 168.171C502.187 168.171 498.954 169.031 496.522 170.751C494.15 172.412 492.964 174.754 492.964 177.779C492.964 180.745 493.676 183.028 495.099 184.63C496.582 186.172 498.806 187.358 501.772 188.189L504.619 189.078C509.126 190.324 511.38 191.955 511.38 193.972C511.38 195.929 509.808 196.907 506.665 196.907C504.945 196.907 503.551 196.314 502.483 195.128C501.416 193.942 500.793 192.311 500.615 190.235L492.43 191.391C492.964 194.832 494.298 197.441 496.434 199.221C498.628 200.941 501.831 201.801 506.042 201.801C510.253 201.801 513.575 200.911 516.006 199.132C518.498 197.352 519.743 194.98 519.743 192.014C519.743 188.989 518.942 186.706 517.341 185.164C515.74 183.622 513.397 182.406 510.313 181.516L507.643 180.537ZM543.075 195.395C541.651 196.047 540.465 196.374 539.516 196.374C537.974 196.374 537.203 195.336 537.203 193.26V174.043H543.253V168.972H537.203V161.231L527.239 164.612V168.972H522.434V174.043H527.239V191.302C527.239 195.276 527.95 197.975 529.374 199.399C530.975 201 533.259 201.801 536.224 201.801C539.249 201.801 541.978 201.148 544.409 199.843L543.075 195.395ZM576.605 184.986C576.605 173.776 571.534 168.171 561.391 168.171C551.308 168.171 546.267 173.776 546.267 184.986C546.267 196.196 551.308 201.801 561.391 201.801C571.534 201.801 576.605 196.196 576.605 184.986ZM556.142 184.986C556.142 180.834 556.498 177.809 557.21 175.911C557.921 174.013 559.315 173.064 561.391 173.064C563.526 173.064 564.92 174.013 565.573 175.911C566.284 177.75 566.64 180.775 566.64 184.986C566.64 189.197 566.284 192.251 565.573 194.149C564.92 195.988 563.526 196.907 561.391 196.907C559.315 196.907 557.921 195.958 557.21 194.06C556.498 192.163 556.142 189.138 556.142 184.986ZM591.698 171.819L588.406 168.972H583.869V201H593.833V175.466C595.494 174.339 597.125 173.776 598.726 173.776C600.387 173.776 601.484 174.25 602.018 175.199C602.552 176.148 602.819 177.661 602.819 179.737V201H612.694V178.491C612.694 175.466 611.834 173.005 610.114 171.107C608.453 169.149 605.873 168.171 602.374 168.171C598.874 168.171 595.316 169.387 591.698 171.819Z" fill="#666666"/>
<path d="M80 81C80 53.3858 102.386 31 130 31H144V95H80V81Z" fill="#9365B8"/>
<path d="M80 111H144V125C144 152.614 121.614 175 94 175H80V111Z" fill="#9365B8"/>
<path d="M0 161C0 133.386 22.3858 111 50 111H64V175H0V161Z" fill="#9365B8"/>
</svg>
